# xmcd CD database file
#
# Track frame offsets:
#	150
#	22235
#	52092
#	80925
#	115680
#	140242
#	167232
#	201350
#	220802
#	241175
#	279967
#
# Disc length: 4151 seconds
#
# Revision: 1
# Processed by: cddbd v1.5.1PL0 Copyright (c) Steve Scherf et al.
# Submitted via: CDex 1.51
#
DISCID=ab10350b
DTITLE=Varios Artistas - 105FM Espaço Rap Volume 2
DYEAR=1999
DGENRE=Rap
TTITLE0=Fogo na Bomba
TTITLE1=Click Clack Bang
TTITLE2=Dia de visita
TTITLE3=Carruagem da morte
TTITLE4=Africa
TTITLE5=Marcas da adolescencia
TTITLE6=Malandragem da um tempo (AO VIVO)
TTITLE7=De esquina (AO VIVO)
TTITLE8=Eu sou uma droga (AO VIVO)
TTITLE9=Lembranças (AO VIVO)
TTITLE10=V.E.M (AO VIVO)
EXTD=YEAR: 1999
EXTT0=
EXTT1=
EXTT2=
EXTT3=
EXTT4=
EXTT5=
EXTT6=
EXTT7=
EXTT8=
EXTT9=
EXTT10=
PLAYORDER=
